<svg xmlns="http://www.w3.org/2000/svg" viewBox="0 0 64 64">
  <defs>
    <radialGradient id="bg" cx="42%" cy="36%" r="74%">
      <stop offset="0" stop-color="#123a46" />
      <stop offset=".48" stop-color="#080d18" />
      <stop offset="1" stop-color="#06060a" />
    </radialGradient>
    <linearGradient id="wave" x1="7" y1="38" x2="60" y2="38" gradientUnits="userSpaceOnUse">
      <stop offset="0" stop-color="#24f2dd" stop-opacity=".2" />
      <stop offset=".23" stop-color="#ffffff" />
      <stop offset=".56" stop-color="#ffffff" />
      <stop offset=".82" stop-color="#8c55ff" />
      <stop offset="1" stop-color="#8c55ff" stop-opacity=".2" />
    </linearGradient>
  </defs>
  <rect width="64" height="64" rx="13" fill="url(#bg)" />
  <path
    d="M7 40c6 0 9-4 15-3 5 1 6 7 11 8 6 1 7-10 12-15 4 2 5 9 11 8 4 0 6-3 10-2-7-4-10 1-15 0-7-2-9-15-14-26-1 14-4 21-10 24-5 2-8-3-14-1-4 1-6 4-6 4Z"
    fill="url(#wave)"
  />
  <path d="M16 36c9-9 17-4 22-27" fill="none" stroke="#20efda" stroke-width="5" stroke-linecap="round" opacity=".5" />
</svg>
